/* XPM */
static char * background_xpm[] = {
"80 80 224 2",
"  	c #D8F8B9",
". 	c #DAFABB",
"+ 	c #DCFCBD",
"@ 	c #DDFDBE",
"# 	c #DEFEBF",
"$ 	c #E0FFC1",
"% 	c #DDFBBD",
"& 	c #DCFABC",
"* 	c #DBF9BB",
"= 	c #D9F7B9",
"- 	c #D7F5B7",
"; 	c #DFFDBF",
"> 	c #E0FEC0",
", 	c #DEFCBE",
"' 	c #E2FFC2",
") 	c #DAF8BA",
"! 	c #D7F5B5",
"~ 	c #DEFCBC",
"{ 	c #DFFDBD",
"] 	c #D3F1B1",
"^ 	c #DCFABA",
"/ 	c #DDFBBB",
"( 	c #D8F8B7",
"_ 	c #D9F9B8",
": 	c #D9F8BC",
"< 	c #D8F7BB",
"[ 	c #D8F7BC",
"} 	c #DBF8BE",
"| 	c #DEFCC0",
"1 	c #E1FFC3",
"2 	c #D9F7B7",
"3 	c #E0FEBE",
"4 	c #DCFCBB",
"5 	c #DBFBBA",
"6 	c #DAFAB9",
"7 	c #D7F7B6",
"8 	c #D6F6B5",
"9 	c #D9F9BA",
"0 	c #D6F6B7",
"a 	c #D7F7B8",
"b 	c #DBFBBC",
"c 	c #DBF9B9",
"d 	c #E1FFBF",
"e 	c #DAF8B8",
"f 	c #DBFABE",
"g 	c #DBFABF",
"h 	c #D6F3B9",
"i 	c #DAF8BC",
"j 	c #DCFABE",
"k 	c #D6F4B6",
"l 	c #D4F2B2",
"m 	c #D6F4B4",
"n 	c #D8F6B8",
"o 	c #E1FFC1",
"p 	c #E3FFC3",
"q 	c #E2FFC0",
"r 	c #DEFDC1",
"s 	c #DEFDC2",
"t 	c #DFFDC1",
"u 	c #D8F6B6",
"v 	c #DEFEBD",
"w 	c #DDFDBC",
"x 	c #DFFFC0",
"y 	c #D4F2B4",
"z 	c #DFFEC2",
"A 	c #DFFEC3",
"B 	c #E1FEC4",
"C 	c #E2FFC4",
"D 	c #E3FFC5",
"E 	c #D5F5B6",
"F 	c #DCFBBF",
"G 	c #DDFCC0",
"H 	c #DEFBC1",
"I 	c #DCFBC0",
"J 	c #DDFBBF",
"K 	c #DAF9BD",
"L 	c #E0FDC3",
"M 	c #D3F3B4",
"N 	c #D4F4B5",
"O 	c #D5F3B3",
"P 	c #E0FFBF",
"Q 	c #DAF9BE",
"R 	c #D5F5B4",
"S 	c #DFFBBE",
"T 	c #E0FCBF",
"U 	c #E1FDC0",
"V 	c #DDF9BC",
"W 	c #DAF6B9",
"X 	c #D9F5B8",
"Y 	c #D9FCBC",
"Z 	c #D7FBBB",
"` 	c #D6FABA",
" .	c #D3F6B6",
"..	c #DEFABD",
"+.	c #DBF9BD",
"@.	c #E1FFC2",
"#.	c #DBF7BA",
"$.	c #D5F8B8",
"%.	c #D8F8B5",
"&.	c #DBFBB8",
"*.	c #DCFCB9",
"=.	c #D9F9B6",
"-.	c #DAFAB7",
";.	c #E2FFC3",
">.	c #DCF8BB",
",.	c #D8FBBB",
"'.	c #D9FAB5",
").	c #DBFCB7",
"!.	c #DCFDB8",
"~.	c #DAFBB6",
"{.	c #DBFEBE",
"].	c #DAFDBD",
"^.	c #E0FEC2",
"/.	c #D7FABA",
"(.	c #D5F3B5",
"_.	c #D1EFB1",
":.	c #D6F9B9",
"<.	c #E3FFC2",
"[.	c #DEFDC4",
"}.	c #DCFBC2",
"|.	c #DAF9C0",
"1.	c #DBFAC1",
"2.	c #DDFCC3",
"3.	c #D5F4B9",
"4.	c #D6F5B9",
"5.	c #D4F9B6",
"6.	c #D0F7B4",
"7.	c #CFF6B3",
"8.	c #D8F6BA",
"9.	c #D7F5B9",
"0.	c #D3F1B5",
"a.	c #DAF7BD",
"b.	c #DFFCC2",
"c.	c #E2FFC5",
"d.	c #CEF5B2",
"e.	c #D9F7BB",
"f.	c #D6F4B8",
"g.	c #DDFCC1",
"h.	c #DCFFBF",
"i.	c #D9FDBD",
"j.	c #D7FCB9",
"k.	c #D2F9B6",
"l.	c #D1F8B5",
"m.	c #DAFEBE",
"n.	c #D9FEBB",
"o.	c #D7FEBB",
"p.	c #D6FDBA",
"q.	c #D9F6BC",
"r.	c #DCF9BF",
"s.	c #D9F8BD",
"t.	c #D8FCBC",
"u.	c #DDFAC0",
"v.	c #D6FBB8",
"w.	c #D3FAB7",
"x.	c #DCF9C1",
"y.	c #DBF8C0",
"z.	c #DDFAC2",
"A.	c #DEFBC3",
"B.	c #D4FBB8",
"C.	c #D2F2B3",
"D.	c #DAF7BF",
"E.	c #D9F6BE",
"F.	c #E0FDC5",
"G.	c #D8FFBC",
"H.	c #D9FFBD",
"I.	c #E2FCBF",
"J.	c #DFF9BC",
"K.	c #DEF6BA",
"L.	c #E1F8C2",
"M.	c #DDF6BF",
"N.	c #DAF3BC",
"O.	c #D8F3BC",
"P.	c #DCF7C0",
"Q.	c #E0FABD",
"R.	c #DDF7BA",
"S.	c #DDF5B9",
"T.	c #E3FAC4",
"U.	c #DFF8C1",
"V.	c #DEF9C2",
"W.	c #DFFCC4",
"X.	c #DEF8BB",
"Y.	c #E4FBC3",
"Z.	c #E2FBC2",
"`.	c #E1FAC1",
" +	c #E0FCC2",
".+	c #E1FDC3",
"++	c #DFF7BB",
"@+	c #E3FAC2",
"#+	c #E3FCC3",
"$+	c #E2FEC4",
"%+	c #E1FBBE",
"&+	c #E2FABE",
"*+	c #E1F9BF",
"=+	c #E1FAC0",
"-+	c #E3FCC2",
";+	c #E1FDC2",
">+	c #E0FCC1",
",+	c #E3FBBF",
"'+	c #E0F8BC",
")+	c #DAFDBB",
"!+	c #DDFFBE",
"~+	c #DDFFBF",
"{+	c #DBFEBC",
"]+	c #D5FAB7",
"^+	c #D2F7B4",
"/+	c #D9FCBA",
"(+	c #D3F8B5",
"_+	c #D5F9B9",
":+	c #D0EEB0",
"<+	c #D6F9B7",
"[+	c #D8FBB9",
"}+	c #D2F6B6",
"|+	c #D4F8B8",
"1+	c #D5F8B6",
"2+	c #D8FDBA",
"3+	c #D1F5B5",
"4+	c #D3F7B7",
"5+	c #D1F6B3",
"6+	c #E4FFC4",
"7+	c #D3F1B3",
"8+	c #D8F5BB",
"9+	c #D7F4BA",
"0+	c #CFEFB0",
"a+	c #D1F1B2",
"  . + @ + + # $ % & * & % & = - % ; > , & = = = & ; ' ' , & & % % * = = ) ) = - ! ~ { ! ] ! ^ / ( _ _ . . : < [ } | 1 > * 2 ^ 3 ) ) * , ; ; & ) 4 4 4 5 6 ( 7 8 ",
"    9   0 a 9 b ) * % ; > ; ) - * % , , * = = ) * % ; , * = ) & ) ) * * & & & % c d d c ! e ~ { 6 6 5 b b f f g h i j ) k l m 2 ) ) * % ; , & = 5 5 4 4 5 6 ( 7 ",
"+ @ + .     . @ n ) % o p o & - = * % % * ) ) * & % % & ) = * % = & , % ) = * , / d q ^ 2 c ~ { 5 5 4 + @ r r s } | t % = m u e = = ) & , , * = _ 6 4 v w 4 6 ( ",
"+ # x # @ + @ # n = * , > > & = - = & & * ) * & ; , % & * & , ; * , o % - y k ) / { { ^ 2 2 c ^ 5 5 4 + @ r z A B C D > % c c / ) = = * % % * = 7 _ 4 v v w 5 6 ",
"E   + x # + b b ) = n = * & & * - = & & * * & % ; % & * & % , ; * ; ' ; = k n & / / / / c e e ^ 5 5 6 . b F G s H t t % ) 2 u 2 * ) = * % % & ) 7 ( 5 w v w 4 5 ",
"E 9 @ $ x # @ @ * = - - n ) * ) = * % % & & % , * ) n = * & & * ) % ; ; % & ; ' { ^ ^ { { ^ ^ { 4 5 6 9 9 : f I H J J & ) 2 2 u & * ) * % , % & ( ( _ 6 5 5 5 5 ",
". + @ @ + + # $ & ) = = ) * ) n * % ; ; % % % , ) n n = & % * = n = ) * & , ; > / 2 2 ~ 3 / ^ { v w 6     < K g L t | , , ~ / ^ , & * & , ; ; , _ _ ( 7 ( ( 6 6 ",
"b .   E M N   + & * * % , & = k & , > > , % % , * ) ) & ; > % ) n k k - = ) = n 2 l O ^ ~ c e / P v 4 9   < : Q H J j % % ~ / ^ ; % & & , > > ; 6 _ 7 R R 7 _ 6 ",
"# a M   + b 9   a b x $ @ b b + S T U U T V W X ) % ; ; & * & , c ~ / 2 2 / ~ c n ) & * n - - n > , * . Y Y Z `  .  b , % ..S T i +.j | | J j +.( 6 4 5 _ ( _ 4 ",
"x 9   @ @.# .     b x x @ b b + ..S T T T ..#.W & , > > % * & % { d d / / d d { = ) * * ) = = = > , * . Y Y Z ` $.. + , % V V ..i +.j J J J j +.%.&.*.&.=.%.-.*.",
"# . . x ;.#   0 9 b # # + b . b >.V ..S S ..V >., ; o > , & & % / { ~ c c ~ { / * ) ) ) & & * ) > , * . Y Y Z ` ,.+ # , & #.#.>.+.j j J J j +.+.'.).!.).~.'.~.!.",
"+ a a b +   E E . b @ @ + b . . ) * & % , % % & % , ; ; ; , , , c ~ / 2 2 / ~ c % * = ) % , % & > , * . Y Y Z ` {.# # , * W W #.j J J j j j +.+.~.).).).).~.).).",
"+ a E a a E E   + + b b b b . 9 = ) * & % % % % * * & , > > > > ~ 3 3 ^ ^ 3 3 ~ , & * * & % % % > , * . Y Y Z ` {.# # % ) W W #.| J J j +.+.+.+.!.).).).).!.).).",
"# 9 0     a 9 # # + . . b b 9 a 9 9 . . b b + + ) ) ) & ; > ; , c ~ / 2 2 / ~ c , , , & = = * , > , * . Y Y Z ` ].@ @ & ) W >...t | J +.+.+.+.+.w 5 6 5 4 w 4 6 ",
"+ 9 9 b b . + @.x + 9 9 . b 9 a . . . 9 . . b b % * ) * , , & = ! e 2 O O 2 e ! % > o & k y = ; > , * . Y Y Z ` ,.b b * ) >...U ^.| J +.i i +.+.r f K f G r F K ",
"  a 9 @ @ . + $ x + 9   . b 9 0 Y ,.,././.,.,.Y ; % * * & & n (.2 ^ c u u c ^ 2 & o p % y _.- ; > , * . Y Y Z ` :.9 . * ) V T <.^.t J +.i i +.+.[.}.|.1.2.[.2.|.",
"0 . # x + . . + 9 9     9   0 E 9 + # @ 9 a a 9 - n = = n = & ; ) * & & % % % & | J j +.+.J | ^.3.4.< /.` 5.6.7.,.b @ ; ; S V >.8.| D t 9.0.9.| H L H a.} b.c.L ",
"0 . @ # + . b + 9 9 9 9 9 9 a 0   b @ + 9   9 . (.- ) * ) = ) * ) * & % , % & & t t | | t t ^.1 g F F ].Z 5.7.d.,.b @ ; ; S V >.e.J 1 | 8.f.e.J i j +.9.9.j | J ",
"a . + @ + b b b 9 . . . . 9     a 9 b b . 9 . b y n & % & = n - = ) & , ; , & * J | t ^.^.^.^.t g.r r h.i.j.k.l.,.b @ ; ; S V >.i j J j i i +.j j | J i i | ^.| ",
"  . b + + + b b 9 . + + . 9 9 . 0   9 b b b + + n * % , & ) = = 8.i J t t | j i i +.J | t | J j Q f F {.m.n.o.p.,.b @ ; ; S V >.j +.+.+.j J j j % ; , * & > o ; ",
". . . b + + + b a . + + . 9 . b a a   . + + + + % , ; , & * % ; q.a.r.H H H r.} i +.J | t | J j s.: K Y t.n.p.p.,.b @ ; ; S V >.J +.i +.J | J +.n * * n n & % ) ",
"b . 9 . + @ + b 0 9 + + 9   9 +   a   . + @ + b ; > ; , % % > ' a.} r.r.u.u.u.r.J | t ^.^.^.^.t I F f ,.` v.w.w.,.b @ ; ; S V >.| J j j J J j +.u ^ ^ 2 e / / e ",
"+ .   9 + @ @ b N   + b   0 9 + 9   a 9 + @ b 9 & , ; > ; ; > o x.x.y.y.y.x.z.A.t t | | t t ^.1 I F f ,.` v.B.B.,.b @ ; ; S V >.| | | J j +.+.j e ~ ~ ^ ^ 3 { ^ ",
"@ .   9 + # @ b C.a b b a E   + .   a 9 + @ b   - * ; o o ; ; ; z.x.D.E.D.x.A.F.| J j +.+.J | ^.s.: : ,.t.n.G.H.,.b @ ; ; S V >.| ^.^.t j i i j m e c 2 2 ^ ^ 2 ",
"# @ .   0 0 0 0 & ) - k - * ; ' , % & & & * n k E = % U U I.J.K.L.M.N.O.P.z.z.1.b . . 9 9     a .   a   b + . a 9.8.e.i j J | t e 3 3 e 2 ~ 3 ~ % & ) n = ) & , ",
"$ x @ b . . . b & * = = = & , > , & * * & & = - 9 * % T T Q.R.S.T.U.M.P.V.W.A.1.b b b . . . . . @ .     . + b . +.+.+.+.+.+.+.j / d d c 2 ^ ~ ^ ) = n - n n ) * ",
"+ b . 9 9 9 9 . % & & & & & % % & * ) ) & & * ) + % , ....X.R.S.Y.Z.`. +.+L H g b b b b + + + + # + 9 9 . + + + | | J j +.i e.8.{ q d ^ 2 c ^ c ) ) = = = = = = ",
"9 9 9 9 9 9 9 . % % ; ; ; % * ) * ) = = & % % & @ % & V >.X.X.++@+Z.#+$+.+b.u.Q . . b b + + @ @ + b b b b b . 9 t t | J +.i e.8.~ 3 3 / c c c ^ & & % % % & * ) ",
"+ + @ @ @ # # @ & % > o > % ) n * ) n = * % % % b * * >.>.J.%+&+*+=+-+;+>+J +.K 9 9 . . b b + + a 9 + @ + 9 a E | | J J j +.+.+.^ / ~ { / c ^ ~ % % % % % & * ) ",
"b b + @ @ @ + + * & ; > > % ) n & ) n n ) % % % . ) ) >.V Q.%+,+++Q.%+S V * * b . . . . b b b b 0 9 @ @ b   0 E J J J J J j j j c c / 3 { c ^ 3 & & * * ) = = = ",
"9 . b b b . 9   = * % , , & ) n , * n n ) & % % . & & V V J.J.'+++J.%+..>.) % # + + + + + b b b b + @ b   0   9 | | | J J j j j / c / d { e e ~ ; % * ) = = = ) ",
"@ # x x x @ + . n ) & % % & ) = ; & = n = * & & + % % ....X.R.S.++Q.%+V #.* , @.x # # @ @ + + b x x @ 9 E 0 . # ^.t t | j +.+.i { / ~ q { u ! ^ ' > , * ) * & % ",
"# + 9 9 . + + b * & & % % & & * & & & % % , , , ; ; ; , , , % % / c 2 _ )+!+~+~+` t.{.{.b ) n n @ b 9 a 0 a 9 . 1 ^.| j +.+.+.+.e { { e u ^ 3 q > % * & ; > & = ",
"# b 9 9 . + + b * & & % % & & * % , , , ; ; > > & & & & * * ) ) ^ c c 5 {+{+n.j.Z t.].,.  n = * + b 9   a   9 9 t t ^.^.t | j +.2 ~ ~ e u c ~ ~ & , ; ; % ) n - ",
"@ b 9 9 b + + b * & & % % & & * % % % % , , , , * * * * ) ) ) = c c ^ 4 {+)+]+^+t.t.,.$.0 - ) % . . . 9 9 9 9 9 j | ^.C C ^.J +.2 / ~ e u c ^ e y ) > o % = n = ",
"+ . 9 . + @ + b * & & % % & & * ) ) * * * * * * % % % & & * * * c e e 6 /+/+]+(+_+` /.:.a n ) % 9 . . b b . 9 9 i j | ^.^.^.| J e ~ { c e ^ c u :+(.& > > , % % ",
"b 9 9 . + @ + b * & & % % & & * * * * * * * ) ) % % % & & * * * c 2 ! 8 <+[+j.j.}+|+,.Y . ) * * 9 . . b b b . . +.+.+.+.j J | t ^ { { ^ ^ ~ / u k k = , ' p > & ",
"9 9 9 b @ # + b * & & % % & & * , , , , % % % % * * * * ) ) ) = ^ e ! R 1+[+2+n.3+|+Y {.+ & & & . . . . b b b + +.+.i e.i +.J | ~ { ~ c ^ 3 ~ e > % ) & > o % = ",
"9   9 b # # @ b * & & % % & & * > > ; ; , , , % & & & & * * ) ) / c 2 ( [+[+v.]+4+_+Y ].+ % ; o b . . 9 . b @ # +.+.j j j j j j / / c u c 3 { c p > & = = ) * & ",
"    9 b # # @ b * & & % % & & * , , , % % & & & ; ; ; , , , % % / / ^ 4 )+/+5.5+` Z ,.,.. % o 6++ b 9   9 b @ x i j | ^.^.| j i ^ ^ u O 2 { { ^ ; ; & - 7+(.& ' ",
"% * ) & ; > , & ; , , % % & & % b # @.#   E   b ) = n n n ) & % ; > > & n - = & ; ; > > o o ' ' + . a 0 0 9 @ x ' o > , % & & & , % & * & % ; > ;.@ . b b 9 . x ",
"; & = = * % % & % * = n - n ) * . @ x @ 9 a 9 + * ) = = = * & , % ; > ; & * , > % % % & % , ; > @ + . 9 . b # $ ; ; , , % % % , % % & * & % , ; # .   . 9 a   + ",
"> & n - n ) & % & * n k k - = ) 9 + # @ 9   . @ % & * ) ) & % , = * , ; , , > o & * = n n ) & ,           9 9 9 & & % % , , ; ; & & & * & % , ; + 9   b b a a . ",
", % * = ) * * & % % & * * * * *   . + + . . + # , % & * * & , ; (.- ) & % % % % & ) n k k n * % E a   9 9   a 0 & & % , , , , , * * * & & % % , + . . # # . 9 + ",
"* & , ; , % & * & % , ; ; % * =   . b b b b + # ; , % & & % , ; n n ) & % % * ) , & = - - = * % . b # $ $ # b 9 % % , , , % & * ) * * & & % % % b 9 . @ @ . 9 + ",
"- * ; o > , % & ) * % , % * = n . . . b b + + + > , % & * & % , % & * & , , % * ; % * = = ) & % 9 b @ x x @ . a & % , , , & * = = ) * & % & & & 9 0 0 . . a   b ",
"k = % ; , % , ; & * ) = = = ) ) b . . b b + + b ; , & * * * & % , * = ) % ; , & , , % & * * & & a   . b b 9 0 N = * % , , % & * = ) * & % & * * . 0 E     a   + ",
"(.n * * ) * , ' o , ) - k = & ; + b . . + + b . ; , & * ) ) * & * n (.k ) % % & , % % % & * * * 9 . + @ + .   0 k n * , ; ; , % n = * & % & * ) @   a 9 9   b $ ",
"y (.n * & % % % ; & ) ) * * ) = c c e e e c ^ ^ > % = - n ) & & > & = ) % ; ; , p ' o > ; % & & ) & , > > , & ) n ) % > o o > ; % % % % & * ) ) > ) n * * - = ; ",
"& & % % % & & * % * ) * & & * = / / / ^ ^ ^ ^ ^ o , ) = ) & % % ; & = ) & ; , % , , , , % & & * * & & & & & & * ) * % , ; ; , , , , ; ; ; , % % ) k k * % * % ' ",
"; , % & & * & & ) ) ) & , , & = / ~ { { ~ / c e ' ; * ) * % , , % * = ) & % % & = = ) * & & & & & * ) = = ) * & & & & & & & & & & % , , ; , , , - k n & , & % > ",
"* ) = = = * % , = = * % ; ; & ) % , ; > ; & = n o , * ) * % % & * ) ) ) * & & & (.- = * & % % % & & * * * * & & , % & * ) ) ) ) = = * & & & & & * * % , % ) n - ",
"* * ) = ) * % , = ) * , > > % ) * & , , % * n k ; & ) = * & * ) = ) * * * * & & (.- ) & , ; , , ) & , ; ; , & ) ; , & ) = n n n n = ) * & & & * % ; ; , & ) k 7+",
"> ; , % % % % % & * * % ; ; % * +.j j J j i e.8., & ) = * * ) = n * % % & * & % k n * , ; ; , % ) & ; o o ; & ) , , % & ) = n - * & % % % % % & = % , & & & ) k ",
", , , ; ; , , % ; % & & , , % * j j j j j j +.+., & * * & & * ) n * , ; % & & , n ) % ; ; , * ) * & % , , % & * % % , , % * = - & & % % % & * * - & % ) * , % = ",
"k - ) % ; ; ; ; o , & & % % & * u.u.r.r.r.u.H H ; , & & , , & * n & > > , & % ; = ) % , , & = - & & ) ) ) ) & & & % , ; , & = - * * * * ) = n - n % , = = , % n ",
"i e.8.i J t ^.t ^.| j i e.i j J H H H u.u.r.r.r.> , & ) ) & ; > + b . . + # # @ > > , ) k y (.- ) * % & * * % ; - & > o , ) ) * % > ; = - ) & & A.A.H u.| , ; ; ",
"j +.i +.J t ^.t t | j +.i +.j j | | | J J j j j % % % % % % % % + .     . + @ + % , % ) n - = * ) * * & % % % & n * , > , & * ) ; , ) - = , % = x.z.H L ^.; % & ",
"j +.e.i j | | J J J j j j +.+.+.J J J J j j j j ) & , ; ; % * ) @ . a 0   b + + * & & ) = ) % ; * ) = & ; ; & = = = * , > ; % ) ; & - (.* ' ; n D.x.b.B 1 , & ) ",
"j i 8.8.i j +.i +.j J J J j +.+.& & & & & & & & * & % , , % * ) # b   a   b + + * & & * ) * , > & = n * > > * k ) n = & > o , ) % & = - & ' o & y.x.H H | % * ) ",
"J +.i i j J J j +.+.j J J J j +.& & & & & & & & % % & & * * * * x @ . 9 . + @ + % % % * ) ) & ; % ) - ) , ; * k ) = n * ; o , * = % , & & > ' > W.z.r.a.i ) * & ",
"t J j j t ^.^.t +.+.+.j j j J J c c c c ^ ^ ^ ^ , % & * ) ) ) ) x @ b b + @ + b , , % * = n ) % , * n = * & ) n * ) ) & , , % & n % > % & , o o F.A.a.8+9.n * & ",
"J +.i +.| ^.^.^.j j +.i +.j | t e e e c c ^ ^ ^ & & % % & * = - + b b + @ + .   & & & ) n n ) & , & ) n n = ) * ) & % % & * & % = & & ) * ; ; * A.z.} q.8.n = ) ",
"8.9.f.8.+.J | J J j i e.i j | ^.e e e c c ^ ^ ^ = * , > ; * - y . . . + @ +   E ) ) ) = n n * % , % * n k k ) % ) % ; , ) = * , ) = - k & o % (.x.x.r.} i = n - ",
"= ) ) * * & & & * , , * * ; > % u 2 u m u ^ ^ u u ^ 3 d { e m l n k - ) % , & = & , * k n ; o % , ) * > ; n (.n o > , % & % , ; = = ) & , , * n ) - (.n % ; & n ",
") ) * * & & % % ) % & ) ) , , & m 2 e 2 ^ { / u ! e ~ 3 ~ c 2 u ) n n ) % , & ) ) , % ) & o o % ; * ) % & n n & , % & * ) * * & = = ) % ; > % * ; & = * ; > & n ",
"& & & & % % % % n * & = = % % ) O 2 c ^ ~ d ~ ! ! e / / ^ c c c % * ) ) & % & * = & ; , ; o > % ; * = ) ) = * ; % % & * ) * * * ) ) * % > > ; & > % * & , , * - ",
"% % % % % % % % n & & ) * , % ) 2 c ^ e ^ ~ ^ m 2 c ^ ^ e e c ^ ; % * ) * & & % = * % % % , ; ; & ) = ) ) * & , ; , , % % % % % * * * & , , & ) % * ) * & & ) - ",
"% % % % % % % % = % , & % ; ; * ~ ~ e m m e 2 O ^ / ~ ^ 2 u 2 e , % & * ) * & , * * * ) n n & > - = * & & % & * , , , % % & & & % * ) ) * * = - ) ) ) * % % & * ",
"% % % % & & & & = % ; % , > ; * { ~ e l l u 2 m / ~ ~ ^ e u u 2 * & & * ) ) & , % & * ) k y = > k ) & & % , & = ) * * * * ) = n & ) = = ) ) n k * & % , ; ; ; ; ",
"% % & & * * ) ) n & , % % ; , ) ^ / e m ! c c u e ^ ~ / c 2 2 e k = & & ) ) * % , % , , = 7+k , n & % = ) % % = ) ) * & * ) = n ) = n n ) & * ) & % ; ; ; , , , ",
"& & & * * ) ) = k * % & & , & n u e e 2 c { ~ e ! e / / ^ c c c 7+- * & * ) * % , , o p % y (.& * , & - - & , * & & % , % & * = n - - = & ; ; ; & % , , & ) ) ) ",
"* * * * * * * * = ; , k k , ; = 9 9 . b @ # x x n = * % , , % & / c c * & j i 8+r.j j , ; ~ e !   . . 9 + $ x . # x @.$ # + + @ @ 9 E N 0 . + @ = & ; , * = = ) ",
"* * * * * * * * & o > - - > o & + + + + + + + + * & % , ; ; ; ; ^ c e ) * +.e.9+u.J J ; > { c u M 9 + 9   . + b . + @ @ + b + @ + . 9 . + @ @ + * * * % ; ; & ) ",
"& & & & & & & & , o ; - - ; o , # # @ + b . 9 9 & & & % % ; > o / ^ e * & j i q.} i i & % ^ 2 ! 0+  # 9 E 0 9 b a   . . . . b @ . b + x @.$ @ 9 & ) = & o ' , ) ",
"% % % % % % % % % , * (.(.* , % @ @ + + b . 9 9 * ) = = ) & , ; 3 ~ ^ & % J j } r.+.+.& % / c 2 a+9 + 9 0 a . .   9 . .     . + 9 . b # $ # b   * * * % , , & ) ",
"% % % % % % % % % % * - - * % % . . . b b b + + ) ) = = = * % , { / e ) * j +.a.b.| | ; > d { / a . b 9 . @ +   @ @ @ .   a   . .   a   9 .   a n & > , = (.k = ",
", , , , , , , , , , % * * % , , a   9 . b + @ # * * * * & % ; ; / e ! k n e.e.8+r.i e.) & / ^ c b + b 9 + $ @ a $ $ # b   a   . b   E E 0 a a a k % p ; k _.y = ",
"; ; ; ; ; ; ; ; % % % , , % % % a a   9 b + @ @ = ) * % % , , , ~ c u - n i i a.q.8.f.- = c e 2 9 @ # b . @ + . x # @ . a a 9 b + . a a   9   a - & > , = (.k = ",
"; ; ; ; ; ; ; ; ) = * % % * = )     9 . . b + + k - = * & & * ) q { c ) * J | u.b.J j & ; 3 3 { E # ;.@     b + + + b 9 a a . @ @ + b b + + .   = * % % & * ) = "};
